<svg width="155" height="44" viewBox="0 0 155 44" fill="none" xmlns="http://www.w3.org/2000/svg">
<path d="M52.9269 38V34.504L65.3149 15.238H53.0409V11.4H70.5589V14.896L58.1329 34.162H70.6729V38H52.9269ZM78.1693 38.456C76.7253 38.456 75.4966 38.2027 74.4833 37.696C73.47 37.164 72.6973 36.4673 72.1653 35.606C71.6333 34.7447 71.3673 33.8073 71.3673 32.794C71.3673 30.818 72.0766 29.2853 73.4953 28.196C74.9393 27.1067 76.8266 26.562 79.1573 26.562C80.2213 26.562 81.1586 26.6507 81.9693 26.828C82.8053 26.98 83.4766 27.132 83.9833 27.284V26.41C83.9833 25.0167 83.5906 23.9907 82.8053 23.332C82.0453 22.6733 81.0446 22.344 79.8033 22.344C78.8913 22.344 78.0806 22.534 77.3713 22.914C76.662 23.2687 76.206 23.9273 76.0033 24.89H71.6713C71.8233 23.522 72.2793 22.382 73.0393 21.47C73.7993 20.558 74.762 19.874 75.9273 19.418C77.118 18.9367 78.41 18.696 79.8033 18.696C82.5646 18.696 84.7053 19.38 86.2253 20.748C87.7706 22.0907 88.5433 23.978 88.5433 26.41V31.008C88.5433 31.9707 88.594 32.68 88.6953 33.136C88.822 33.5667 89.012 33.8453 89.2653 33.972C89.544 34.0733 89.8986 34.124 90.3293 34.124H90.5193V38H89.4933C88.2013 38 87.112 37.8227 86.2253 37.468C85.364 37.088 84.756 36.3533 84.4013 35.264C83.768 36.176 82.932 36.936 81.8933 37.544C80.8546 38.152 79.6133 38.456 78.1693 38.456ZM79.1573 34.922C80.044 34.922 80.804 34.7193 81.4373 34.314C82.0706 33.8833 82.5773 33.326 82.9573 32.642C83.3626 31.9327 83.6286 31.16 83.7553 30.324C83.2233 30.172 82.59 30.02 81.8553 29.868C81.1206 29.716 80.3733 29.64 79.6133 29.64C78.4733 29.64 77.574 29.8933 76.9153 30.4C76.282 30.9067 75.9653 31.5907 75.9653 32.452C75.9653 33.1613 76.244 33.7567 76.8013 34.238C77.384 34.694 78.1693 34.922 79.1573 34.922ZM91.4194 38V19.152H95.9794V38H91.4194ZM91.4194 15.922V11.248H96.0174V15.922H91.4194ZM97.3442 38V34.314L107.11 22.914H97.4962V19.152H112.316V22.838L102.436 34.238H112.506V38H97.3442ZM123.107 38.456C121.232 38.456 119.535 38.0507 118.015 37.24C116.52 36.404 115.329 35.2387 114.443 33.744C113.556 32.2493 113.113 30.5267 113.113 28.576C113.113 26.6 113.556 24.8773 114.443 23.408C115.329 21.9133 116.533 20.7607 118.053 19.95C119.573 19.114 121.257 18.696 123.107 18.696C125.007 18.696 126.704 19.114 128.199 19.95C129.693 20.7607 130.884 21.9133 131.771 23.408C132.657 24.8773 133.101 26.6 133.101 28.576C133.101 30.5267 132.657 32.2493 131.771 33.744C130.884 35.2387 129.681 36.404 128.161 37.24C126.666 38.0507 124.981 38.456 123.107 38.456ZM123.107 34.504C124.069 34.504 124.943 34.2887 125.729 33.858C126.539 33.402 127.185 32.7433 127.667 31.882C128.148 30.9953 128.389 29.8933 128.389 28.576C128.389 27.2587 128.148 26.1693 127.667 25.308C127.185 24.4213 126.539 23.7627 125.729 23.332C124.943 22.876 124.082 22.648 123.145 22.648C122.182 22.648 121.295 22.876 120.485 23.332C119.674 23.7627 119.028 24.4213 118.547 25.308C118.065 26.1693 117.825 27.2587 117.825 28.576C117.825 29.8933 118.065 30.9953 118.547 31.882C119.028 32.7433 119.661 33.402 120.447 33.858C121.257 34.2887 122.144 34.504 123.107 34.504ZM143.481 38.456C141.607 38.456 139.909 38.0507 138.389 37.24C136.895 36.404 135.704 35.2387 134.817 33.744C133.931 32.2493 133.487 30.5267 133.487 28.576C133.487 26.6 133.931 24.8773 134.817 23.408C135.704 21.9133 136.907 20.7607 138.427 19.95C139.947 19.114 141.632 18.696 143.481 18.696C145.381 18.696 147.079 19.114 148.573 19.95C150.068 20.7607 151.259 21.9133 152.145 23.408C153.032 24.8773 153.475 26.6 153.475 28.576C153.475 30.5267 153.032 32.2493 152.145 33.744C151.259 35.2387 150.055 36.404 148.535 37.24C147.041 38.0507 145.356 38.456 143.481 38.456ZM143.481 34.504C144.444 34.504 145.318 34.2887 146.103 33.858C146.914 33.402 147.56 32.7433 148.041 31.882C148.523 30.9953 148.763 29.8933 148.763 28.576C148.763 27.2587 148.523 26.1693 148.041 25.308C147.56 24.4213 146.914 23.7627 146.103 23.332C145.318 22.876 144.457 22.648 143.519 22.648C142.557 22.648 141.67 22.876 140.859 23.332C140.049 23.7627 139.403 24.4213 138.921 25.308C138.44 26.1693 138.199 27.2587 138.199 28.576C138.199 29.8933 138.44 30.9953 138.921 31.882C139.403 32.7433 140.036 33.402 140.821 33.858C141.632 34.2887 142.519 34.504 143.481 34.504Z" fill="#002D20"/>
<path fill-rule="evenodd" clip-rule="evenodd" d="M42.7529 20.2832C42.7529 20.2832 40.0354 25.7501 36.7935 28.2571C36.7935 28.2571 35.6785 27.8666 35.3667 26.5965C35.055 25.3267 36.9136 23.4232 35.3784 21.0213L35.0413 23.1405L33.6428 25.3704L32.1436 28.3921L32.8705 31.1549L35.8531 35.2901C35.8531 35.2901 39.0305 32.7504 39.0952 32.4899C39.16 32.2295 40.6013 26.592 40.6013 26.592C40.6013 26.592 43.9259 20.2832 42.7529 20.2832Z" fill="#CCCCCC"/>
<path fill-rule="evenodd" clip-rule="evenodd" d="M8.55996 22.9121C8.55996 22.9121 9.70441 24.3251 12.5342 23.6739C15.3642 23.0227 15.2993 21.3947 17.8931 20.939C20.4869 20.4831 23.1451 19.9861 24.5069 21.9159C25.8686 23.8455 25.3275 23.8455 28.1379 22.1844C30.9483 20.5235 31.0561 21.2809 32.4825 22.1844C33.9089 23.088 34.6245 22.8876 35.0014 21.9544L35.4328 22.0624L35.2301 23.1367L34.5331 24.1706L33.6659 25.3182L33.1228 26.4335L32.4982 28.2895L32.3035 30.4222L25.0685 37.3738H15.6874L8.56003 33.1409L10.9414 30.1L10.9865 27.2151L10.2245 25.8963L8.56003 23.617C8.55996 23.617 8.26245 22.6891 8.55996 22.9121Z" fill="#003526"/>
<path fill-rule="evenodd" clip-rule="evenodd" d="M25.1067 43.2448C24.3548 42.9812 23.7655 43.2713 23.1999 43.5498C22.6367 43.8273 22.0921 44.0954 21.4 43.9599C20.8182 43.8459 20.1094 43.6353 19.5377 43.3147C19.1894 43.1197 18.8879 42.8818 18.6863 42.5969C18.4638 42.2827 18.3614 41.9203 18.4417 41.5068C18.4751 41.3356 18.5409 41.157 18.6443 40.9709C18.9131 40.4872 19.2178 40.0645 19.508 39.7132C19.8394 39.3125 20.1505 39.0058 20.3691 38.8065C20.282 38.6584 20.2128 38.5093 20.1648 38.3596C19.6697 36.8078 20.4692 35.9811 21.5881 35.5343C22.3338 35.2365 23.2191 35.1234 23.9113 35.0716C22.6627 33.5276 21.5193 31.8793 21.5148 31.8731L21.4106 31.722L21.4824 31.554C21.8067 30.7941 22.401 30.2253 23.0913 29.8556C23.5605 29.6045 24.0758 29.445 24.5812 29.3794C23.5135 28.2725 22.5338 26.9753 22.5304 26.9712L22.3646 26.7547L22.5434 26.5492C22.7006 26.368 22.8567 26.2047 23.0108 26.0589C23.9388 25.1807 24.8674 24.8474 25.759 24.8989C26.6435 24.9498 27.473 25.3816 28.2188 26.035C28.399 26.193 28.5729 26.3622 28.7397 26.5399C29.8365 27.7089 31.3695 28.383 32.1462 28.6702C32.1277 28.2872 32.1717 27.8729 32.2973 27.4269C32.6947 26.0162 33.4178 25.0909 34.037 24.2979C34.8026 23.3185 35.3898 22.5671 34.782 21.3133C34.1467 20.0024 33.9708 19.0089 34.1548 18.2378C34.3481 17.4279 34.9157 16.8867 35.7533 16.5024C35.0115 17.1501 34.9072 17.9341 34.7982 18.3912C34.65 19.0115 34.8146 19.858 35.3787 21.0215C36.1681 22.6498 35.4692 23.5441 34.5585 24.7095C33.9762 25.4549 33.2961 26.3249 32.9354 27.6066C32.2098 30.1828 34.8294 31.5164 35.4785 31.8031C36.5567 31.1576 37.727 29.7586 38.8835 28.0508C39.8623 26.6056 40.8295 24.9376 41.7245 23.3122C41.7315 23.2974 41.7394 23.2833 41.7479 23.2699C41.9614 22.8818 42.1709 22.4963 42.3751 22.1168C44.165 18.7941 39.221 15.0762 39.221 15.0762C39.2383 15.0851 45.2606 18.1587 42.9586 22.4321C42.7629 22.7952 42.5627 23.1642 42.3584 23.5359C42.3582 24.0155 42.3632 26.5329 42.4782 30.8624C42.5355 33.0236 42.1317 34.5535 41.5126 35.6126C40.6624 37.0673 39.41 37.6413 38.3608 37.7447L38.3506 37.7458C37.5778 37.8209 36.9345 38.1302 36.3604 38.5636C35.767 39.0117 35.2371 39.5996 34.7142 40.2044C33.7487 41.321 33.3874 41.3363 31.8628 41.3995L31.7035 41.4063L31.6938 41.407C30.8656 41.4638 30.0879 41.8688 29.0056 42.4323C28.5348 42.6772 28.0079 42.9516 27.3738 43.2502C26.3861 43.7152 25.7062 43.6198 25.1067 43.2448Z" fill="#003526"/>
<path fill-rule="evenodd" clip-rule="evenodd" d="M25.5083 29.369L25.5287 29.3714C26.5876 29.4994 27.5687 30.7551 28.643 32.1299C29.4401 33.1504 30.2922 34.2409 31.2107 34.9162C32.0809 35.5558 33.0997 36.1259 34.2774 36.5214C35.4532 36.9162 36.7901 37.1383 38.2993 37.0839C39.1735 36.9968 40.2207 36.5109 40.9416 35.2775C41.504 34.3154 41.87 32.9031 41.8163 30.8787C41.7392 27.9721 41.7105 25.9174 41.6998 24.7168C40.9732 25.9992 40.2077 27.2758 39.4303 28.424C38.1708 30.2836 36.8775 31.8031 35.6582 32.4663L35.5247 32.5389L35.3819 32.4833C35.3728 32.4799 32.8609 31.5312 32.2667 29.418C31.6465 29.214 29.6403 28.4711 28.2569 26.9965C28.1011 26.8306 27.9428 26.6763 27.7827 26.536C27.1425 25.9751 26.4453 25.6054 25.7222 25.5637C25.0065 25.5223 24.2459 25.8043 23.4642 26.5443C23.3836 26.6203 23.3034 26.7008 23.2236 26.7853C23.6076 27.2769 24.5816 28.4903 25.5083 29.369Z" fill="white"/>
<path fill-rule="evenodd" clip-rule="evenodd" d="M31.6378 40.7443L31.6494 40.7434C31.658 40.7429 31.6664 40.7427 31.6749 40.7427L31.8367 40.736C33.1295 40.6823 33.4357 40.6693 34.2135 39.7701C34.7602 39.1377 35.3167 38.5209 35.9634 38.0328C36.1311 37.9061 36.3045 37.7884 36.4846 37.6822C35.6172 37.5862 34.8122 37.4016 34.0676 37.1515C32.8178 36.7318 31.7391 36.1286 30.8193 35.4526C29.8257 34.7224 28.9456 33.5956 28.1218 32.5413C27.1362 31.2798 26.2361 30.1278 25.4512 30.0328C24.8044 29.9546 24.0519 30.0945 23.4024 30.4421C22.8881 30.7174 22.4411 31.1227 22.1685 31.6517C22.5228 32.1546 23.6843 33.7818 24.8346 35.1501L24.8396 35.1561L24.8415 35.1583C25.1075 35.4745 25.3727 35.7767 25.6271 36.0477C26.0947 36.5462 26.5331 37.1751 26.9813 37.8176C28.0272 39.3178 29.13 40.8987 30.6807 40.7951C31.0319 40.7716 31.353 40.7564 31.6378 40.7443Z" fill="white"/>
<path fill-rule="evenodd" clip-rule="evenodd" d="M20.764 39.3457C20.565 39.5297 20.2973 39.7976 20.0163 40.1379C19.7499 40.4601 19.4698 40.8486 19.2224 41.2938C19.1555 41.4145 19.1131 41.5281 19.0926 41.6342C19.0505 41.8503 19.1061 42.0425 19.2257 42.2114C19.366 42.4096 19.5918 42.5841 19.8588 42.7338C20.361 43.0151 20.9974 43.2029 21.5244 43.3061C22.0028 43.3998 22.4484 43.1804 22.9091 42.9533C23.3177 42.7522 23.7359 42.5464 24.2177 42.4856C24.109 42.3749 23.9991 42.2593 23.8864 42.1407C23.5102 41.7453 23.0987 41.3124 22.5952 40.9372C22.0742 40.5489 21.5496 40.1388 21.1185 39.7192C20.9917 39.5958 20.8729 39.4712 20.764 39.3457Z" fill="white"/>
<path fill-rule="evenodd" clip-rule="evenodd" d="M21.0435 38.6305C21.0503 38.6374 21.0567 38.6447 21.0631 38.6522C21.078 38.6703 21.0908 38.6897 21.101 38.7097C21.2331 38.8849 21.3963 39.0632 21.5802 39.2422C21.9855 39.6365 22.4884 40.0293 22.9894 40.4026C23.5395 40.8125 23.9716 41.2668 24.3661 41.682C25.1986 42.5572 25.8443 43.2358 27.0932 42.648C27.6933 42.3657 28.226 42.088 28.7018 41.8405C29.0577 41.6553 29.3826 41.486 29.6902 41.3388C28.3388 40.9207 27.3687 39.5298 26.4392 38.1968C26.0078 37.5781 25.5855 36.9722 25.1445 36.5026C24.9146 36.2574 24.6761 35.9875 24.4362 35.7051C23.7595 35.7385 22.6723 35.8155 21.8318 36.1512C21.0249 36.4731 20.4459 37.0621 20.7952 38.156C20.8442 38.3099 20.93 38.4687 21.0435 38.6305Z" fill="white"/>
<path fill-rule="evenodd" clip-rule="evenodd" d="M21.0435 38.6305C21.0503 38.6374 21.0567 38.6447 21.0631 38.6522C21.078 38.6703 21.0908 38.6897 21.101 38.7097C21.2331 38.8849 21.3963 39.0632 21.5802 39.2422C21.9855 39.6365 22.4884 40.0293 22.9894 40.4026C23.5395 40.8125 23.9716 41.2668 24.3662 41.682C25.1986 42.5572 25.8443 43.2358 27.0932 42.648C27.6933 42.3657 28.2261 42.088 28.7018 41.8405C29.0577 41.6553 29.3826 41.486 29.6902 41.3388C28.3389 40.9207 27.3688 39.5298 26.4392 38.1968C26.0078 37.5781 25.5855 36.9722 25.1445 36.5026C24.9146 36.2574 24.6761 35.9875 24.4362 35.7051C24.4362 35.7051 25.5936 37.9932 25.9829 39.2868C26.3718 40.5804 27.5877 40.4664 27.085 41.2643C26.5825 42.062 25.8873 42.3438 25.0526 41.5714C24.2178 40.7991 23.8852 39.8248 22.7188 39.3453C21.5528 38.866 20.9686 37.7871 20.963 36.7461C20.6963 37.0844 20.5985 37.5401 20.7952 38.156C20.8443 38.3099 20.93 38.4687 21.0435 38.6305Z" fill="#CCCCCC"/>
<path fill-rule="evenodd" clip-rule="evenodd" d="M0.730152 20.2832C0.730152 20.2832 3.4478 25.75 6.6899 28.2571C6.6899 28.2571 7.80459 27.8664 8.1163 26.5965C8.42801 25.3267 6.5694 23.4232 8.10471 21.0213L8.44164 23.1403L9.84033 25.3702L11.3396 28.3919L10.6128 31.155L7.63007 35.29C7.63007 35.29 4.45281 32.7503 4.38783 32.4898C4.32315 32.2293 2.88165 26.5918 2.88165 26.5918C2.88165 26.5918 -0.442824 20.2832 0.730152 20.2832Z" fill="#CCCCCC"/>
<path fill-rule="evenodd" clip-rule="evenodd" d="M18.3761 43.2447C19.1281 42.9813 19.7173 43.2713 20.283 43.5497C20.8462 43.8271 21.3908 44.0953 22.0828 43.9598C22.6646 43.846 23.3734 43.6352 23.9455 43.3146C24.2934 43.1195 24.595 42.8817 24.7966 42.5969C25.0193 42.2827 25.1215 41.9203 25.0411 41.5067C25.008 41.3357 24.9419 41.157 24.8387 40.9709C24.5699 40.4873 24.2653 40.0644 23.975 39.7133C23.6435 39.3126 23.3324 39.0057 23.1137 38.8064C23.2012 38.6584 23.2704 38.5092 23.318 38.3597C23.8133 36.8076 23.0136 35.9811 21.8947 35.5343C21.1492 35.2366 20.2637 35.1233 19.5715 35.0716C20.8203 33.5274 21.9637 31.8791 21.9682 31.873L22.0724 31.7221L22.0005 31.5538C21.6762 30.794 21.082 30.2252 20.3916 29.8557C19.9224 29.6046 19.4071 29.4449 18.9017 29.3795C19.9695 28.2724 20.9492 26.9754 20.9525 26.971L21.1182 26.7547L20.9396 26.5491C20.7822 26.3679 20.6262 26.2045 20.4722 26.0588C19.5441 25.1806 18.6156 24.8473 17.724 24.8988C16.8394 24.9499 16.0098 25.3817 15.2642 26.0351C15.0838 26.1929 14.91 26.3621 14.7431 26.54C13.6465 27.7088 12.1133 28.3831 11.3367 28.6702C11.3555 28.2871 11.3113 27.8728 11.1857 27.4268C10.7884 26.0161 10.0652 25.0908 9.44582 24.298C8.6803 23.3186 8.09318 22.567 8.70098 21.3133C9.33634 20.0023 9.51223 19.009 9.32802 18.2377C9.13472 17.428 8.56736 16.8866 7.72962 16.5022C8.4715 17.1499 8.57567 17.9341 8.68485 18.3913C8.83287 19.0114 8.66826 19.858 8.10431 21.0215C7.31496 22.6499 8.01361 23.544 8.92434 24.7095C9.50692 25.4548 10.1867 26.325 10.5477 27.6064C11.2731 30.1828 8.65351 31.5163 8.00437 31.803C6.92618 31.1577 5.75589 29.7585 4.59936 28.0507C3.62064 26.6057 2.6535 24.9375 1.75844 23.312C1.7517 23.2974 1.74389 23.2831 1.73511 23.2698C1.52145 22.8817 1.31202 22.4961 1.10791 22.1167C-0.681911 18.7942 4.26181 15.0762 4.26181 15.0762C4.24475 15.085 -1.7777 18.1587 0.524367 22.432C0.720011 22.7953 0.920198 23.1642 1.12466 23.5359C1.12466 24.0156 1.11965 26.5329 1.00466 30.8623C0.947495 33.0235 1.35118 34.5534 1.97037 35.6127C2.82066 37.0674 4.07302 37.6413 5.12227 37.7447L5.13261 37.7457C5.90502 37.8209 6.5484 38.1302 7.12251 38.5636C7.71603 39.0117 8.24598 39.5997 8.76885 40.2045C9.73425 41.3209 10.0957 41.3362 11.6203 41.3996L11.7796 41.4062L11.7893 41.4071C12.6175 41.4639 13.395 41.8686 14.4775 42.4323C14.9482 42.6771 15.475 42.9516 16.1094 43.2501C17.0968 43.715 17.7769 43.6196 18.3761 43.2447Z" fill="#003526"/>
<path fill-rule="evenodd" clip-rule="evenodd" d="M17.9746 29.3692L17.954 29.3716C16.8952 29.4996 15.9141 30.7552 14.84 32.1299C14.0427 33.1506 13.1906 34.241 12.2719 34.9164C11.4019 35.5558 10.3831 36.1261 9.20529 36.5216C8.0295 36.9164 6.69252 37.1384 5.18354 37.0839C4.30931 36.997 3.2621 36.5111 2.54124 35.2777C1.97887 34.3156 1.61264 32.9031 1.66634 30.8789C1.74342 27.9721 1.77224 25.9174 1.78287 24.7168C2.50955 25.9992 3.27507 27.276 4.05237 28.4242C5.31181 30.2836 6.60541 31.8033 7.82458 32.4665L7.95804 32.5389L8.10075 32.4833C8.10984 32.4801 10.6216 31.5312 11.216 29.418C11.8361 29.214 13.8423 28.4713 15.2261 26.9965C15.3815 26.8308 15.5399 26.6763 15.7 26.536C16.3402 25.9751 17.0377 25.6056 17.7605 25.5637C18.4762 25.5225 19.2367 25.8045 20.0184 26.5443C20.0991 26.6205 20.1793 26.7008 20.2592 26.7855C19.8752 27.2769 18.9012 28.4903 17.9746 29.3692Z" fill="white"/>
<path fill-rule="evenodd" clip-rule="evenodd" d="M11.8449 40.7443L11.8333 40.7435C11.8248 40.7428 11.8162 40.7426 11.8079 40.7428L11.6459 40.736C10.3533 40.6822 10.0469 40.6694 9.26943 39.7701C8.72242 39.1378 8.16586 38.521 7.51938 38.0327C7.35145 37.9062 7.17821 37.7885 6.99805 37.6821C7.86539 37.5862 8.67041 37.4015 9.41526 37.1514C10.6648 36.7319 11.7437 36.1285 12.6633 35.4525C13.6569 34.7223 14.5371 33.5956 15.3608 32.5412C16.3464 31.2797 17.2465 30.1277 18.0314 30.0329C18.6782 29.9545 19.4307 30.0945 20.0804 30.4422C20.5946 30.7175 21.0415 31.1228 21.3141 31.6518C20.9599 32.1547 19.7982 33.7818 18.6483 35.15L18.643 35.1562L18.6411 35.1584C18.3753 35.4746 18.1101 35.7765 17.8557 36.0477C17.3883 36.546 16.9495 37.1749 16.5013 37.8175C15.4554 39.3177 14.3527 40.8988 12.8019 40.795C12.4508 40.7717 12.1299 40.7565 11.8449 40.7443Z" fill="white"/>
<path fill-rule="evenodd" clip-rule="evenodd" d="M11.8449 40.7443L11.8333 40.7436C11.8248 40.7429 11.8162 40.7427 11.8079 40.7429L11.6459 40.7361C10.3533 40.6822 10.0469 40.6694 9.26943 39.7702C8.72242 39.1379 8.16586 38.521 7.51938 38.0328C7.35145 37.9062 7.17821 37.7886 6.99805 37.6821C7.86539 37.5862 8.67041 37.4016 9.41526 37.1515C10.6648 36.7319 11.7437 36.1286 12.6633 35.4526C13.6569 34.7223 14.5371 33.5957 15.3608 32.5412C15.6775 32.1359 15.9853 31.7419 16.2834 31.3906C16.273 31.4071 14.8357 33.6862 13.2528 35.73C11.6642 37.7813 9.07125 37.9117 10.2052 39.0512C11.3392 40.1907 12.9139 40.1257 14.4288 39.0512C15.9436 37.9767 17.6164 35.2286 19.5521 34.0304L19.5523 34.0302C19.2604 34.4047 18.9537 34.7864 18.6483 35.1501L18.643 35.1563L18.6411 35.1585C18.3753 35.4747 18.1101 35.7766 17.8557 36.0478C17.3882 36.5461 16.9495 37.175 16.5013 37.8176C15.4553 39.3178 14.3527 40.8989 12.8019 40.7951C12.4508 40.7717 12.1299 40.7566 11.8449 40.7443Z" fill="#CCCCCC"/>
<path fill-rule="evenodd" clip-rule="evenodd" d="M22.7192 39.3459C22.9181 39.5301 23.186 39.798 23.467 40.1381C23.7337 40.4605 24.0136 40.8489 24.2609 41.2942C24.3278 41.4149 24.3701 41.5284 24.3908 41.6346C24.4328 41.8506 24.3773 42.0429 24.2578 42.2117C24.1173 42.41 23.8915 42.5845 23.6245 42.7341C23.1224 43.0156 22.4858 43.2033 21.9588 43.3066C21.4804 43.4001 21.0349 43.1807 20.5741 42.9537C20.1657 42.7527 19.7473 42.5467 19.2656 42.4861C19.3743 42.3752 19.4841 42.2598 19.5969 42.1412C19.9731 41.7456 20.3847 41.3127 20.8883 40.9376C21.409 40.5494 21.9336 40.1393 22.3649 39.7198C22.4914 39.5962 22.6106 39.4716 22.7192 39.3459Z" fill="white"/>
<path fill-rule="evenodd" clip-rule="evenodd" d="M22.7192 39.3459C22.9182 39.5301 23.186 39.798 23.4671 40.1381C23.7337 40.4605 24.0136 40.8489 24.261 41.2942C24.3278 41.4149 24.3701 41.5284 24.3908 41.6346C24.4328 41.8506 24.3773 42.0429 24.2578 42.2117C24.1173 42.41 23.8916 42.5845 23.6245 42.7341C23.4409 42.8371 23.2394 42.9273 23.0318 43.0057C23.1654 42.5757 23.0985 42.1152 23.4652 41.705C24.0182 41.0869 23.4657 40.7997 22.9122 40.3456C22.3588 39.8916 22.345 39.9082 21.488 40.7997C20.631 41.6911 20.6775 42.1116 21.0989 42.6325C21.5206 43.1534 22.2374 43.2461 22.2374 43.2461C22.1421 43.2687 22.0491 43.2888 21.9588 43.3065C21.4804 43.4 21.0349 43.1807 20.5741 42.9536C20.1657 42.7527 19.7473 42.5467 19.2656 42.4861C19.3743 42.3752 19.4841 42.2598 19.5969 42.1412C19.9731 41.7456 20.3847 41.3127 20.8883 40.9375C21.409 40.5494 21.9336 40.1393 22.3649 39.7197C22.4915 39.5962 22.6107 39.4716 22.7192 39.3459Z" fill="#CCCCCC"/>
<path fill-rule="evenodd" clip-rule="evenodd" d="M22.4393 38.6307C22.4325 38.6377 22.426 38.6447 22.4196 38.6523C22.4047 38.6705 22.392 38.6897 22.3817 38.7098C22.2496 38.8849 22.0864 39.0633 21.9025 39.2423C21.4974 39.6366 20.9944 40.0293 20.4933 40.4028C19.9431 40.8127 19.5113 41.267 19.1166 41.682C18.2841 42.5572 17.6386 43.236 16.3895 42.648C15.7896 42.3657 15.2567 42.0882 14.7811 41.8405C14.425 41.6553 14.1003 41.4861 13.7925 41.3388C15.1439 40.9208 16.114 39.5297 17.0435 38.1969C17.4751 37.578 17.8975 36.9723 18.3382 36.5026C18.5683 36.2574 18.8067 35.9875 19.0468 35.7051C19.7234 35.7384 20.8104 35.8156 21.6511 36.1511C22.4578 36.4733 23.0367 37.062 22.6876 38.156C22.6384 38.31 22.5528 38.4689 22.4393 38.6307Z" fill="white"/>
<path fill-rule="evenodd" clip-rule="evenodd" d="M22.4393 38.6307C22.4324 38.6377 22.426 38.6447 22.4196 38.6523C22.4047 38.6705 22.392 38.6897 22.3817 38.7098C22.2496 38.8849 22.0864 39.0633 21.9025 39.2423C21.4974 39.6366 20.9944 40.0293 20.4933 40.4028C19.9431 40.8127 19.5113 41.267 19.1166 41.682C18.2841 42.5572 17.6386 43.236 16.3895 42.648C15.7896 42.3657 15.2567 42.0882 14.7811 41.8405C14.425 41.6553 14.1003 41.4861 13.7925 41.3388C15.1439 40.9208 16.114 39.5297 17.0435 38.1969C17.4751 37.578 17.8975 36.9723 18.3382 36.5026C18.5683 36.2574 18.8067 35.9875 19.0468 35.7051C19.0468 35.7051 17.8891 37.9932 17.5001 39.2868C17.1109 40.5803 15.895 40.4665 16.3976 41.2642C16.9001 42.0621 17.5954 42.3439 18.4301 41.5715C19.265 40.799 19.5976 39.8249 20.7638 39.3454C21.9301 38.8659 22.514 37.787 22.5197 36.746C22.7864 37.0843 22.8842 37.54 22.6876 38.156C22.6384 38.31 22.5528 38.4689 22.4393 38.6307Z" fill="#CCCCCC"/>
<path fill-rule="evenodd" clip-rule="evenodd" d="M10.8714 31.8726C11.9411 30.4725 12.1257 29.0702 12.1257 29.0702C11.73 29.2412 11.4073 29.3552 11.216 29.418C11.1476 29.6611 11.054 29.8889 10.9416 30.1013C10.9107 30.1598 10.8784 30.217 10.8449 30.273C10.6195 30.6504 10.3366 30.9768 10.0389 31.2541C9.14057 32.0907 8.10688 32.4813 8.10076 32.4833L7.95805 32.5389L7.82458 32.4665C6.60541 31.8033 5.31182 30.2836 4.05238 28.4242C3.65793 27.8415 3.26649 27.2258 2.88159 26.5929C2.50798 25.9788 2.14082 25.3484 1.78288 24.7168C1.77221 25.9174 1.74342 27.9721 1.66635 30.8789C1.61261 32.9031 1.97887 34.3156 2.54124 35.2777C3.26211 36.5111 4.30931 36.997 5.18355 37.0839C6.69253 37.1383 8.02951 36.9164 9.20529 36.5216C10.2371 36.175 11.1471 35.6945 11.9419 35.1505C12.0541 35.0736 12.1644 34.9956 12.272 34.9164C13.0348 34.3556 13.7516 33.5086 14.4293 32.6532C13.2688 33.3066 11.9859 33.9289 10.6936 34.4093C9.67488 34.7879 8.65058 35.0786 7.67609 35.2269C7.64052 35.2322 7.60499 35.2375 7.56942 35.2426C6.49546 35.3949 5.48525 35.3707 4.61397 35.0959C1.92828 34.2494 1.9557 30.0493 2.47433 28.9499C2.68376 28.5062 3.08351 28.7963 3.59888 29.3987C4.3597 30.2882 5.37287 31.8587 6.39736 32.7517C7.2843 33.5247 8.16262 33.6385 8.95209 33.3749C8.97888 33.3661 9.00568 33.3566 9.03213 33.3469C9.7399 33.0862 10.3724 32.5253 10.8714 31.8726Z" fill="#CCCCCC"/>
<path fill-rule="evenodd" clip-rule="evenodd" d="M31.638 40.7445L31.6496 40.7436C31.6582 40.7431 31.6667 40.7429 31.6751 40.7429L31.8369 40.7361C33.1297 40.6824 33.4359 40.6694 34.2137 39.7702C34.7604 39.1379 35.317 38.521 35.9636 38.033C36.1314 37.9063 36.3048 37.7886 36.4848 37.6823C35.6174 37.5864 34.8124 37.4017 34.0679 37.1517C32.818 36.7319 31.7393 36.1288 30.8195 35.4528C29.8259 34.7225 28.9459 33.5957 28.1221 32.5414C27.8055 32.136 27.4975 31.7421 27.1994 31.3906C27.2099 31.4072 28.6474 33.6862 30.2302 35.7302C31.8187 37.7814 34.4115 37.9117 33.2776 39.0512C32.1438 40.1909 30.5688 40.1257 29.0541 39.0512C27.5391 37.9769 25.8665 35.2286 23.931 34.0305L23.9307 34.0304C24.2227 34.4047 24.5291 34.7866 24.8348 35.1503L24.8398 35.1563L24.8417 35.1585C25.1077 35.4747 25.3729 35.7768 25.6273 36.0478C26.0949 36.5463 26.5333 37.1752 26.9815 37.8178C28.0274 39.318 29.1302 40.8989 30.6809 40.7953C31.0321 40.7717 31.3532 40.7566 31.638 40.7445Z" fill="#CCCCCC"/>
<path fill-rule="evenodd" clip-rule="evenodd" d="M32.6114 31.8726C31.5416 30.4725 31.3571 29.0701 31.3571 29.0701C31.7528 29.241 32.0756 29.355 32.2667 29.418C32.3352 29.6609 32.429 29.8887 32.5412 30.1013C32.5722 30.1596 32.6043 30.2168 32.638 30.273C32.8633 30.6504 33.1462 30.9766 33.4438 31.2541C34.3422 32.0907 35.3762 32.4812 35.382 32.4834L35.5249 32.5389L35.6583 32.4664C36.8777 31.8032 38.1709 30.2836 39.4304 28.424C39.825 27.8413 40.2163 27.2256 40.6012 26.5929C40.9748 25.9786 41.3419 25.3484 41.6999 24.7168C41.7107 25.9174 41.7393 27.9721 41.8164 30.8787C41.8701 32.9031 41.504 34.3154 40.9417 35.2775C40.2208 36.5109 39.1736 36.9968 38.2994 37.0839C36.7903 37.1383 35.4533 36.9162 34.2775 36.5214C33.2457 36.1748 32.3357 35.6943 31.5409 35.1504C31.4287 35.0736 31.3188 34.9954 31.2109 34.9162C30.448 34.3556 29.7313 33.5084 29.0537 32.653C30.214 33.3064 31.4971 33.9287 32.7892 34.4091C33.8079 34.788 34.8322 35.0785 35.8067 35.2267C35.8424 35.2322 35.8779 35.2373 35.9135 35.2424C36.9875 35.3947 37.9977 35.3705 38.8688 35.0959C41.5547 34.2492 41.5272 30.0491 41.0086 28.9498C40.7992 28.506 40.3996 28.796 39.8841 29.3985C39.1231 30.2881 38.11 31.8587 37.0856 32.7515C36.1985 33.5246 35.3202 33.6385 34.5307 33.3749C34.5039 33.3659 34.4773 33.3566 34.4507 33.3467C33.743 33.0861 33.1103 32.5254 32.6114 31.8726Z" fill="#CCCCCC"/>
<path fill-rule="evenodd" clip-rule="evenodd" d="M14.7866 3.46097L15.4323 4.28634C15.4323 4.28634 18.0256 3.41667 18.6139 3.56814C19.2022 3.71952 21.2027 5.16019 22.4933 4.04358C22.4933 4.04358 21.9205 4.28634 21.3315 4.10952C20.7427 3.93291 20.6408 3.51065 20.1145 3.4133C20.1145 3.4133 20.5211 3.36712 20.9374 3.48768C22.9932 4.08293 24.0261 2.64145 22.9486 0.450307C23.5408 2.2345 22.9633 3.28044 21.0024 3.08139C21.0024 3.08139 21.1625 2.25746 21.4838 1.8343C21.8051 1.41105 21.9987 1.10236 21.5841 0.65794C21.5841 0.65794 21.716 0.882134 21.5318 1.26385C21.3481 1.64575 21.043 1.83328 20.7713 2.22989C20.4995 2.62651 20.2133 3.05394 18.7546 2.9306C18.7546 2.9306 19.5022 2.63257 19.5064 1.82299C19.5104 1.01367 19.4156 0.469772 20.0988 0.016734C20.0988 0.016734 19.5249 0.0215539 19.1495 0.881322C19.1495 0.881322 19.2912 0.336311 18.8142 0C18.8142 0 19.0284 0.687349 18.9243 1.52471C18.8205 2.36216 16.129 3.44872 14.7866 3.46097Z" fill="#4CAE47"/>
<path fill-rule="evenodd" clip-rule="evenodd" d="M15.3672 3.6155L15.5157 4.65451C15.5157 4.65451 18.1944 5.20358 18.6286 5.63024C19.0626 6.05669 20.078 8.30874 21.7515 7.98997C21.7515 7.98997 21.1346 7.9125 20.7126 7.46365C20.2905 7.01479 20.4126 6.59808 20.0052 6.24943C20.0052 6.24943 20.3805 6.41375 20.6808 6.72731C22.1648 8.27485 23.7771 7.54533 23.935 5.10657C23.5594 6.94911 22.5388 7.56509 20.9397 6.40794C20.9397 6.40794 21.4882 5.7748 21.977 5.56981C22.466 5.36452 22.7873 5.19454 22.6497 4.60134C22.6497 4.60134 22.6522 4.86181 22.303 5.09995C21.9535 5.3381 21.5961 5.34736 21.1631 5.5544C20.7304 5.76169 20.27 5.98811 19.0678 5.14853C19.0678 5.14853 19.8639 5.26611 20.2703 4.56703C20.6768 3.86795 20.8655 3.34952 21.6829 3.30019C21.6829 3.30019 21.1831 3.01628 20.4301 3.57239C20.4301 3.57239 20.8242 3.17151 20.5784 2.64062C20.5784 2.64062 20.422 3.34346 19.9149 4.01629C19.4078 4.68938 16.5361 4.2789 15.3672 3.6155Z" fill="#4CAE47"/>
<path fill-rule="evenodd" clip-rule="evenodd" d="M14.787 3.46189C14.787 3.46189 13.68 3.07295 13.2295 2.84676C12.7792 2.62069 11.5631 2.12305 11.5631 2.12305C11.5631 2.12305 11.0229 2.77903 11.2705 3.50265C11.5181 4.22636 13.2295 5.62849 13.2295 5.62849C13.2295 5.62849 12.5314 6.96285 12.329 7.57345C12.1261 8.18398 11.7658 10.0835 13.4322 11.7343C13.4322 11.7343 13.4208 12.6503 14.1415 13.4984C14.1415 13.4984 13.8487 14.3463 14.0064 15.4206C14.164 16.4949 14.5356 16.9924 14.4455 17.5351C14.3552 18.0779 14.0965 18.2475 14.3103 18.858C14.5244 19.4689 14.603 19.4348 14.5017 20.1812C14.4002 20.9274 14.2198 21.8658 14.0284 22.3068C13.8371 22.748 13.6568 23.2795 13.5444 23.6979C13.52 23.7878 13.5318 23.8645 13.5693 23.9296H14.8734C14.9441 23.7157 14.9537 23.3866 14.9967 22.9515C15.0755 22.1601 15.4245 20.6674 15.3571 20.17C15.2895 19.6724 15.0754 19.0731 15.1204 18.598C15.1657 18.1232 15.3232 17.6369 15.3232 17.6369C15.3232 17.6369 14.7265 16.5287 15.3344 14.9457C15.3344 14.9457 14.884 16.4891 15.5426 17.6143C15.5426 17.6143 15.2782 18.2418 15.3119 18.8751C15.3457 19.5082 15.571 19.6778 15.571 19.6778C15.571 19.6778 15.6047 20.7973 15.5822 21.374C15.5594 21.9506 15.3232 22.8554 15.2556 23.0701C15.2056 23.2292 15.0816 23.5613 15.0845 23.9298H16.6813C16.8554 23.1189 16.5369 23.0411 16.6742 22.4257C16.8205 21.7699 16.8205 20.1303 16.8881 19.5422C16.9557 18.9542 17.4736 18.7734 17.2484 17.5749C17.2484 17.5749 18.1492 16.1273 18.1041 15.0191C18.1041 15.0191 18.2619 15.7089 18.0029 16.6701C18.0029 16.6701 21.7971 19.8363 25.4454 15.6978C25.4454 15.6978 25.1525 16.2178 24.6233 16.738C24.6233 16.738 24.5445 17.1338 24.657 17.3598C24.7696 17.5861 25.2763 17.8123 25.4001 18.468C25.5241 19.124 25.0512 20.1641 25.0512 20.1641C25.0512 20.1641 24.601 21.5324 24.2521 22.1771C23.903 22.8216 23.4415 23.387 23.2725 23.5679C23.1917 23.6544 23.0596 23.777 22.9536 23.9297H24.4932C24.5844 23.7121 24.655 23.4534 24.7925 23.127C25.074 22.4598 25.8397 21.3516 26.5153 20.9106C27.1909 20.4696 28.2381 19.9043 28.1253 19.0336C28.0128 18.163 27.7766 18.2194 27.3486 17.7331C26.9208 17.2469 25.9299 16.4781 25.7949 14.7368C25.7949 14.7368 26.0202 16.4214 27.7653 17.7671C29.5106 19.1129 29.4091 20.5263 29.6344 21.3743C29.8184 22.0665 29.7618 23.1582 29.8087 23.9297H31.2894C31.1531 23.1562 31.1175 22.6168 31.0984 21.7474C31.0757 20.7298 30.6704 19.531 30.4003 18.0837C30.13 16.6364 29.7923 16.2744 29.4771 15.5056C29.1617 14.7366 29.2744 13.1536 28.8015 12.2941C28.8015 12.2941 30.5129 12.3617 30.0176 9.58018C30.0176 9.58018 29.7022 10.3716 29.1167 10.5979C28.5312 10.8241 27.7431 10.3718 26.6396 9.96472C25.5364 9.5576 24.7706 9.37673 24.0051 9.73843C23.2393 10.1004 21.7756 10.6431 20.5147 10.3038C19.2536 9.96468 19.4561 8.96961 17.9024 8.96961C16.3487 8.96961 15.6506 8.96962 15.4028 8.4042C15.1552 7.83884 15.2901 7.36381 15.6956 6.91159C15.6956 6.91159 15.7632 7.3866 16.889 7.40914C18.0149 7.43176 18.1052 6.79841 18.1277 6.48186C18.1277 6.48186 17.5646 6.5498 17.4071 6.16531C17.2494 5.78073 16.3333 4.00536 14.787 3.46189Z" fill="#4CAE47"/>
</svg>
